<?xml version="1.0" encoding="UTF-8"?>
<svg version="1.1" xmlns="http://www.w3.org/2000/svg" width="512" height="512">
<path d="M0 0 C4.98909156 1.34441252 6.88137108 5.5063055 9.5078125 9.67578125 C10.2727907 10.79698609 11.04401953 11.91394303 11.8203125 13.02734375 C13.64815869 15.64999654 15.45912175 18.28304271 17.2578125 20.92578125 C21.79679385 27.57912354 26.41661612 34.17648464 31.02514648 40.78173828 C32.30497031 42.61817889 33.58262606 44.45613317 34.85766602 46.29589844 C35.84691821 47.72262287 36.84070221 49.14624428 37.84350586 50.56347656 C39.71032847 53.24810163 40.55000118 54.89055997 41.1953125 58.17578125 C40.34533196 62.50295489 38.91054908 64.03535817 35.44140625 66.625 C33.5078125 67.67578125 33.5078125 67.67578125 30.4453125 67.98828125 C24.04390453 65.12807769 20.13707831 57.9181197 16.3203125 52.23828125 C15.37252239 50.84366398 14.42460152 49.44913557 13.4765625 48.0546875 C12.99316406 47.34070801 12.50976562 46.62672852 12.01171875 45.89111328 C9.46558757 42.14052979 6.89152616 38.4091919 4.3203125 34.67578125 C3.38919734 33.32170092 2.45819588 31.96754241 1.52734375 30.61328125 C0.86089844 29.64390625 0.19445312 28.67453125 -0.4921875 27.67578125 C-3.43382254 31.11644367 -4.95185526 34.91486678 -6.4921875 39.11328125 C-6.75346436 39.81976807 -7.01474121 40.52625488 -7.28393555 41.25415039 C-10.26183225 49.51885902 -12.77408928 58.23955601 -13.30859375 67.05078125 C-13.4921875 69.67578125 -13.4921875 69.67578125 -14.14453125 73.55078125 C-14.8266352 78.8122994 -15.45759604 84.07924676 -12.09326172 88.52392578 C-8.11958263 92.33307226 -3.53641295 95.25969418 1.11767578 98.16699219 C4.0990145 100.04898128 6.95441239 102.07881847 9.81835938 104.13330078 C11.91045333 105.63309662 14.01805908 107.10877559 16.12890625 108.58203125 C21.60418452 112.4274535 26.97389562 116.41351606 32.35107422 120.39428711 C37.71021556 124.35891911 43.09670417 128.28241559 48.5078125 132.17578125 C54.70444624 136.6358652 60.86756107 141.13839664 67.0078125 145.67578125 C80.73826982 155.81857119 94.60361591 165.77295313 108.5078125 175.67578125 C110.8178125 173.03578125 113.1278125 170.39578125 115.5078125 167.67578125 C114.81042969 167.42957031 114.11304688 167.18335938 113.39453125 166.9296875 C104.53878886 163.08301185 96.7105443 156.26280302 89.71484375 149.73046875 C87.79933152 147.94717772 85.84255483 146.27232706 83.8203125 144.61328125 C71.74933324 134.25072364 63.02212645 119.61863227 54.171875 106.546875 C52.43357723 103.99044221 50.64174849 101.49225327 48.78125 99.0234375 C48.14243896 98.158396 48.14243896 98.158396 47.49072266 97.27587891 C46.33767196 95.72097291 45.16559989 94.18022298 43.9921875 92.640625 C42.07742098 88.81613082 42.40257461 86.75555067 43.5078125 82.67578125 C46.53466301 79.21652353 48.30267219 77.83200314 52.8828125 77.23828125 C61.44690715 80.63438775 66.78775722 91.84436766 71.7578125 99.30078125 C89.8198727 126.14936012 89.8198727 126.14936012 114.5078125 146.67578125 C115.82072266 147.53042969 115.82072266 147.53042969 117.16015625 148.40234375 C143.31811921 164.69276238 178.91144455 170.39935441 209.16479492 164.59960938 C221.27211706 161.69979145 232.478262 156.23668612 239.5078125 145.67578125 C241.40179586 142.08742552 243.03793264 138.45648186 244.5078125 134.67578125 C236.87682432 134.91803484 230.56517806 136.84884152 223.48657227 139.50439453 C209.9190864 144.59317674 196.16992808 143.77235274 182.859375 138.12890625 C176.56993887 135.22716301 170.57443319 132.41689282 166.5078125 126.67578125 C165.6953125 123.17578125 165.6953125 123.17578125 166.5078125 119.67578125 C170.20709827 114.05834731 176.3460469 112.5753317 182.46411133 110.70166016 C201.32957472 104.77376666 216.51426076 92.45617421 226.9453125 75.73828125 C234.42962324 63.77653413 243.13334041 54.36522856 257.0234375 50.203125 C263.39960271 48.84969371 270.14044822 48.06391284 276.5703125 49.36328125 C281.52236168 49.75630103 284.98260847 48.42672071 289.578125 46.68359375 C303.46867036 41.90524615 318.7412252 44.64199435 331.98828125 50.11328125 C339.70290315 53.94754972 350.47600071 60.61215766 354.5078125 68.67578125 C354.78125 70.69921875 354.78125 70.69921875 354.8828125 73.05078125 C354.93179687 73.82164063 354.98078125 74.5925 355.03125 75.38671875 C354.22705844 78.90355645 352.51678689 79.75112196 349.5078125 81.67578125 C346.57985872 83.04089972 343.58257651 84.1986472 340.5703125 85.36328125 C331.97113922 88.81772806 322.18625187 92.99734188 315.5078125 99.67578125 C312.7742609 116.98827471 315.29479518 134.10626041 318.29296875 151.203125 C318.45949951 152.22104126 318.45949951 152.22104126 318.62939453 153.25952148 C318.92242972 155.03698143 319.24325831 156.80979851 319.56640625 158.58203125 C319.48908241 162.66472994 318.02841904 164.53872202 315.5078125 167.67578125 C313.13607127 169.43546023 312.01603926 169.68881271 309.0703125 169.61328125 C305.4839992 168.30121541 303.86980148 166.67614564 301.5078125 163.67578125 C300.73471005 161.00126468 300.08458811 158.39333067 299.5078125 155.67578125 C299.33258057 154.875354 299.15734863 154.07492676 298.97680664 153.25024414 C295.47620198 136.36208483 295.16910897 119.98112562 295.65576172 102.81665039 C295.85988221 93.97377333 295.99293889 86.6065978 291.5078125 78.67578125 C291.17281738 77.95567871 290.83782227 77.23557617 290.49267578 76.49365234 C289.20893598 74.1241118 287.9629643 73.69951613 285.5078125 72.67578125 C284.89164062 72.32257813 284.27546875 71.969375 283.640625 71.60546875 C276.09820268 67.64349593 267.71409743 67.21556503 259.52734375 69.51171875 C257.11110814 70.46108163 254.81640531 71.49122239 252.5078125 72.67578125 C251.79882812 72.96710938 251.08984375 73.2584375 250.359375 73.55859375 C247.99158357 74.98726115 247.61045936 76.15050373 246.5078125 78.67578125 C235.34046193 97.72163629 220.4042177 112.25518015 201.5078125 123.67578125 C211.16863152 123.6421784 218.91829953 121.46248938 227.85546875 118.05078125 C235.99716629 114.98567159 245.48952812 113.93420726 253.6875 117.484375 C257.8115559 120.18359614 261.30596578 124.27208781 263.5078125 128.67578125 C264.5335165 139.95852522 259.23183117 149.90795115 252.5078125 158.67578125 C238.10561416 175.52292931 220.15215363 183.35332219 198.2421875 185.46191406 C178.80929883 186.98184357 159.47937328 185.49416451 140.97314453 179.21411133 C137.11596448 177.94038732 134.38016664 177.23474646 130.5078125 178.67578125 C122.75446746 184.77035776 118.42185818 196.15441687 117.1015625 205.57421875 C115.6816672 219.16003512 118.32279761 230.1446372 125.5078125 241.67578125 C131.08365159 248.49496836 139.01908327 251.1862845 147.39379883 252.9675293 C157.0211823 255.0544445 163.38543839 258.56043198 168.9453125 267.05078125 C178.1328004 288.36575318 167.31386658 313.83123397 160.63085938 334.55102539 C158.49664205 341.21402617 156.66759048 347.77158627 155.5078125 354.67578125 C204.34425417 345.87100285 247.2277484 316.16446951 275.5078125 275.67578125 C278.83848172 270.51900305 281.72489223 265.14307449 284.5078125 259.67578125 C284.82443848 259.06557129 285.14106445 258.45536133 285.46728516 257.82666016 C295.60594294 238.10525011 300.4547869 216.63124534 302.14086914 194.58642578 C302.8627702 190.82754509 304.63660464 189.17248373 307.5078125 186.67578125 C311.0078125 185.55078125 311.0078125 185.55078125 314.5078125 185.67578125 C317.30970696 187.44219297 319.02306161 188.70627947 320.5078125 191.67578125 C324.56870808 229.0892782 304.37771461 269.07361269 282.04296875 297.54296875 C270.45906048 311.92082779 257.36653852 324.7299093 242.5078125 335.67578125 C241.94771484 336.09666016 241.38761719 336.51753906 240.81054688 336.95117188 C229.73964109 345.26392812 217.96849731 352.62066723 205.5078125 358.67578125 C205.58 359.64773438 205.6521875 360.6196875 205.7265625 361.62109375 C208.42005262 400.33762643 205.05169903 442.13236653 178.734375 473.0390625 C176.08767661 476.01503299 173.30913032 478.84549855 170.5078125 481.67578125 C169.76917969 482.475 169.03054688 483.27421875 168.26953125 484.09765625 C155.35927914 497.78677183 137.66893509 507.14190438 119.5078125 511.67578125 C118.82807373 511.84940186 118.14833496 512.02302246 117.44799805 512.2019043 C110.2866734 513.35611264 102.86799573 512.98385536 95.63085938 513.02587891 C93.57735719 513.04225299 91.52390739 513.06928879 89.47070312 513.10791016 C78.34624584 513.315456 67.76143918 512.97855306 56.8828125 510.46484375 C56.02421631 510.27014496 55.16562012 510.07544617 54.28100586 509.87484741 C48.86900392 508.47542775 45.4375342 506.68801476 41.5078125 502.67578125 C40.3203125 499.23828125 40.3203125 499.23828125 40.5078125 495.67578125 C44.11875704 490.23115394 47.5844505 488.34862013 53.6953125 486.36328125 C55.12642836 485.86755189 56.55742366 485.37147431 57.98828125 484.875 C59.73044922 484.28138672 59.73044922 484.28138672 61.5078125 483.67578125 C62.1678125 483.34578125 62.8278125 483.01578125 63.5078125 482.67578125 C62.81445801 482.66119873 62.12110352 482.64661621 61.40673828 482.6315918 C18.32954935 481.62391743 -16.96087989 470.0023146 -47.4921875 438.67578125 C-56.99694914 428.53124661 -56.99694914 428.53124661 -57.4921875 422.67578125 C-55.83282001 419.00770574 -54.00165734 416.64408588 -50.4921875 414.67578125 C-47.78966748 414.61879137 -45.35174522 414.72365434 -42.6796875 414.98828125 C-35.06261507 415.58828349 -27.50770906 415.77331045 -19.8671875 415.73828125 C-18.84133545 415.73417236 -17.8154834 415.73006348 -16.75854492 415.72583008 C-14.336369 415.71325217 -11.91430235 415.69683467 -9.4921875 415.67578125 C-10.12125 415.14210938 -10.7503125 414.6084375 -11.3984375 414.05859375 C-27.52802476 400.01807954 -37.09458277 383.31468371 -39.3046875 361.92578125 C-39.66568079 355.64600211 -39.53187576 350.51677562 -35.7421875 345.23828125 C-32.7487258 343.1594884 -31.17220894 342.74322723 -27.4921875 342.67578125 C-24.32050972 344.13888561 -21.54201658 346.12394795 -18.6796875 348.11328125 C9.85025746 366.92996939 43.76467544 375.38792398 77.80200195 369.22021484 C98.3499029 364.98443314 117.90052841 356.61121399 134.2578125 343.390625 C136.5078125 341.67578125 136.5078125 341.67578125 139.5078125 340.67578125 C140.38447148 338.4238564 140.38447148 338.4238564 140.90625 335.609375 C142.03179056 330.65450187 143.2970149 325.77109569 144.734375 320.8984375 C144.92932556 320.23266693 145.12427612 319.56689636 145.32513428 318.88095093 C145.92566107 316.83279031 146.52886891 314.78543675 147.1328125 312.73828125 C147.93998052 310.00072127 148.74421608 307.26232244 149.546875 304.5234375 C149.89959473 303.32726807 150.25231445 302.13109863 150.61572266 300.89868164 C152.10891725 295.50413816 152.66744446 290.72590472 152.6953125 285.11328125 C152.70949219 283.81261719 152.72367188 282.51195312 152.73828125 281.171875 C152.47295079 277.09164043 152.47295079 277.09164043 150.5078125 273.67578125 C146.96192749 272.37657379 146.96192749 272.37657379 143.5078125 271.67578125 C143.3221875 272.49755859 143.3221875 272.49755859 143.1328125 273.3359375 C139.88417775 285.82287732 133.14421347 297.16952694 124.5078125 306.67578125 C123.70859375 307.5678125 122.909375 308.45984375 122.0859375 309.37890625 C104.46256228 328.04508474 78.90488849 339.13423467 53.21484375 339.87890625 C32.84459871 340.15250559 32.84459871 340.15250559 23.5078125 336.67578125 C22.49847656 336.3212085 22.49847656 336.3212085 21.46875 335.95947266 C4.46284374 329.92667185 4.46284374 329.92667185 0.5078125 322.67578125 C0.1953125 319.61328125 0.1953125 319.61328125 1.5078125 316.67578125 C7.18513495 310.74039869 14.48729903 306.83530352 21.5078125 302.67578125 C17.87011257 301.61399187 14.23738433 300.59674708 10.5546875 299.703125 C-13.16747851 293.79468146 -31.08451789 282.39412646 -48.2421875 265.30078125 C-48.98403793 264.56246567 -48.98403793 264.56246567 -49.74087524 263.80923462 C-59.05505636 254.49001032 -59.05505636 254.49001032 -60.4921875 250.67578125 C-60.34813596 247.21854426 -59.98398586 245.29918762 -57.828125 242.56640625 C-54.94226769 240.23069565 -52.8984464 239.90268458 -49.2421875 239.42578125 C-47.62570313 239.20148438 -47.62570313 239.20148438 -45.9765625 238.97265625 C-45.15671875 238.8746875 -44.336875 238.77671875 -43.4921875 238.67578125 C-45.96182777 236.69565897 -48.4342479 234.72100014 -50.9296875 232.7734375 C-72.57517098 215.58243614 -85.96704099 196.27578282 -94.4921875 169.98828125 C-94.79535889 169.05564453 -95.09853027 168.12300781 -95.41088867 167.16210938 C-98.09956187 158.47623413 -98.09956187 158.47623413 -97.4921875 153.67578125 C-93.81566919 148.10848209 -93.81566919 148.10848209 -90.17504883 146.91821289 C-86.99174421 146.63055965 -84.80763601 147.17855898 -81.75390625 148.109375 C-80.68720703 148.42841797 -79.62050781 148.74746094 -78.52148438 149.07617188 C-77.41869141 149.41841797 -76.31589844 149.76066406 -75.1796875 150.11328125 C-74.05755859 150.45166016 -72.93542969 150.79003906 -71.77929688 151.13867188 C-69.01367085 151.97424399 -66.25168785 152.8202378 -63.4921875 153.67578125 C-64.08386719 152.52464844 -64.67554688 151.37351563 -65.28515625 150.1875 C-72.7452506 135.29729054 -78.55443243 119.57935283 -78.66015625 102.72265625 C-78.66430038 102.0688649 -78.66844452 101.41507355 -78.67271423 100.74147034 C-78.68233326 98.63618259 -78.68238151 96.53108745 -78.6796875 94.42578125 C-78.67977814 93.35280289 -78.67977814 93.35280289 -78.67987061 92.25814819 C-78.64138888 60.36172389 -78.64138888 60.36172389 -72.8046875 52.36328125 C-69.52449665 49.96962846 -67.49594762 50.28039953 -63.4921875 50.67578125 C-61.08758784 52.00937517 -59.18447449 53.24972875 -57.0546875 54.92578125 C-56.46993652 55.3645459 -55.88518555 55.80331055 -55.28271484 56.25537109 C-54.02019857 57.20516312 -52.76320421 58.16233036 -51.51123047 59.12597656 C-49.36407712 60.77411797 -47.19831021 62.39509145 -45.02734375 64.01171875 C-41.17103979 66.88502669 -37.32863716 69.7760232 -33.4921875 72.67578125 C-33.40243652 72.01271973 -33.31268555 71.3496582 -33.22021484 70.66650391 C-30.11485756 48.2793142 -24.19270709 30.20608203 -14.296875 9.90234375 C-13.85327637 8.99049316 -13.40967773 8.07864258 -12.95263672 7.13916016 C-9.55232992 1.4037714 -6.56321189 -0.33485775 0 0 Z M301.5078125 62.67578125 C301.89453125 63.16046875 302.28125 63.64515625 302.6796875 64.14453125 C306.28723204 68.78790541 309.03183864 73.34291448 311.5078125 78.67578125 C315.4823629 77.97728353 318.77355348 76.04685356 322.2578125 74.11328125 C322.85980469 73.78392578 323.46179688 73.45457031 324.08203125 73.11523438 C325.55951753 72.30613475 327.03397286 71.49150463 328.5078125 70.67578125 C328.5078125 70.01578125 328.5078125 69.35578125 328.5078125 68.67578125 C319.65861978 64.27255975 311.39044733 62.30975774 301.5078125 62.67578125 Z M-59.4921875 75.67578125 C-64.69380038 100.25759696 -58.73580217 127.68044768 -45.4921875 148.67578125 C-42.65333933 152.49403204 -39.67272729 156.13773892 -36.4921875 159.67578125 C-36.04582443 160.18560043 -35.59946136 160.69541962 -35.13957214 161.22068787 C-33.17739544 162.95382915 -31.62920172 163.4782853 -29.1184082 164.19946289 C-27.77336716 164.59346283 -27.77336716 164.59346283 -26.40115356 164.99542236 C-25.41670258 165.27279236 -24.43225159 165.55016235 -23.41796875 165.8359375 C-21.85258865 166.28933502 -21.85258865 166.28933502 -20.25558472 166.75189209 C-16.7746735 167.75709202 -13.28981108 168.74779355 -9.8046875 169.73828125 C-7.36805361 170.4383789 -4.93161491 171.13915623 -2.49536133 171.84057617 C19.86167603 178.26220642 42.25651287 184.5542811 64.65698242 190.82250977 C65.32223183 191.00875475 65.98748123 191.19499973 66.67288971 191.3868885 C69.78891452 192.25923443 72.90518945 193.13065943 76.02200317 194.00018311 C77.12696136 194.30925598 78.23191956 194.61832886 79.37036133 194.93676758 C80.41068512 195.22653473 81.45100891 195.51630188 82.52285767 195.81484985 C86.1747062 196.86812913 89.7859041 198.03468075 93.38822937 199.24613953 C95.77117959 199.72916604 97.2230717 199.43900735 99.5078125 198.67578125 C99.8378125 196.36578125 100.1678125 194.05578125 100.5078125 191.67578125 C99.71761719 191.11632812 98.92742187 190.556875 98.11328125 189.98046875 C90.28744252 184.42317753 82.53942059 178.76746965 74.82104492 173.06201172 C69.40809727 169.06490721 63.96930245 165.10625352 58.5078125 161.17578125 C51.50561646 156.13576433 44.55167914 151.03364681 37.61328125 145.90625 C32.26923574 141.96162721 26.89870469 138.05609069 21.5078125 134.17578125 C14.50566008 129.13570306 7.55167994 124.0336474 0.61328125 118.90625 C-4.7307651 114.96162659 -10.10133947 111.05615297 -15.4921875 107.17578125 C-21.74904581 102.67117297 -27.97597292 98.12831576 -34.1796875 93.55078125 C-34.96456543 92.97183105 -35.74944336 92.39288086 -36.55810547 91.79638672 C-39.62981498 89.5295534 -42.70074455 87.26168326 -45.76904297 84.99023438 C-47.88363956 83.42510722 -50.00024935 81.86273901 -52.1171875 80.30078125 C-52.75100342 79.8301123 -53.38481934 79.35944336 -54.0378418 78.87451172 C-56.52618768 76.66069136 -56.52618768 76.66069136 -59.4921875 75.67578125 Z M-74.4921875 169.67578125 C-71.82789663 182.33750641 -65.8002307 192.86401983 -57.4921875 202.67578125 C-56.98429687 203.32804687 -56.47640625 203.9803125 -55.953125 204.65234375 C-43.40060164 220.17295145 -23.74783075 230.46517284 -4.4921875 234.67578125 C6.08890552 235.52634009 16.93597332 233.79885526 27.453125 232.7421875 C29.47521652 232.54245917 31.49734237 232.34307819 33.51950073 232.14402771 C37.73405388 231.72796093 41.94820948 231.30812826 46.16210938 230.88549805 C51.57435771 230.34293215 56.98744025 229.80926621 62.40083504 229.27827549 C66.56512197 228.86894505 70.72897183 228.4553051 74.89269638 228.04029655 C76.89016078 227.841672 78.88775312 227.64432979 80.88547134 227.44827461 C83.66254658 227.17501914 86.43898857 226.89605813 89.21533203 226.61547852 C90.46039268 226.49463646 90.46039268 226.49463646 91.73060608 226.37135315 C95.42920896 226.30177712 95.42920896 226.30177712 98.5078125 224.67578125 C98.7578898 222.21768127 98.7578898 222.21768127 98.5078125 219.67578125 C95.77744541 216.94541416 92.68440224 216.40875375 89.05737305 215.41113281 C88.28194719 215.1921615 87.50652134 214.97319019 86.70759773 214.74758339 C84.10495251 214.01428216 81.49976659 213.29044673 78.89453125 212.56640625 C77.04309435 212.04652962 75.19183563 211.52601808 73.34074402 211.00491333 C69.36969787 209.88827704 65.39755879 208.77565076 61.42449951 207.66619873 C55.18962408 205.92508886 48.95706422 204.17580606 42.72509766 202.42431641 C41.16374903 201.98550109 41.16374903 201.98550109 39.570858 201.53782082 C37.45469836 200.94303742 35.33854977 200.34821472 33.22241211 199.75335312 C30.00887575 198.85027884 26.79510179 197.94805395 23.58129883 197.04592896 C9.48733758 193.0878431 -4.59511434 189.09106045 -18.66796875 185.05859375 C-20.02144755 184.67088554 -20.02144755 184.67088554 -21.40226936 184.27534485 C-29.99050724 181.8148537 -38.57750545 179.35007292 -47.16320705 176.88074684 C-50.27783054 175.98551294 -53.39302793 175.09228893 -56.50836754 174.19955063 C-58.63130106 173.5903458 -60.75337699 172.9782175 -62.8754425 172.36599731 C-64.12327011 172.0085141 -65.37109772 171.65103088 -66.65673828 171.28271484 C-67.74270294 170.97030853 -68.8286676 170.65790222 -69.94754028 170.33602905 C-72.37668566 169.59206489 -72.37668566 169.59206489 -74.4921875 169.67578125 Z M96.13581848 243.16931152 C94.46362999 243.33338753 94.46362999 243.33338753 92.75765991 243.5007782 C91.53414825 243.6223378 90.3106366 243.7438974 89.05004883 243.86914062 C87.76213943 243.99593704 86.47423004 244.12273346 85.14729309 244.25337219 C81.6143953 244.60122423 78.08167828 244.95088208 74.54899049 245.30085945 C70.85752635 245.66625804 67.16589924 246.03000248 63.47428894 246.3939209 C56.48316079 247.08335988 49.49218092 247.77429074 42.50125283 248.46575499 C34.54256084 249.25286644 26.58370538 250.03831876 18.62483561 250.82363033 C2.25231171 252.43916523 -14.12000519 254.05678817 -30.4921875 255.67578125 C-30.83888551 258.7229931 -30.83888551 258.7229931 -28.796875 260.4375 C-8.86726813 276.23379612 14.02644135 284.46488383 39.5078125 284.67578125 C41.38726562 284.72605469 41.38726562 284.72605469 43.3046875 284.77734375 C55.78540774 284.24245574 64.35204368 277.64958725 74.39697266 270.7578125 C80.00593578 267.00383059 85.79794471 263.54601924 91.5703125 260.05078125 C93.75085397 258.72881022 95.92938142 257.40350894 98.10546875 256.07421875 C99.02851807 255.51395996 99.95156738 254.95370117 100.90258789 254.37646484 C103.58317176 252.62658693 106.04182659 250.714389 108.5078125 248.67578125 C106.71949475 245.61814907 106.71949475 245.61814907 104.5078125 242.67578125 C101.66778102 242.67578125 98.9608761 242.89029349 96.13581848 243.16931152 Z M118.61816406 262.31152344 C116.36894866 263.62037655 114.25798239 265.04853692 112.1328125 266.55078125 C110.43592579 267.68643629 108.73795701 268.82047574 107.0390625 269.953125 C105.69328125 270.86553955 105.69328125 270.86553955 104.3203125 271.79638672 C99.49787934 275.01887721 94.56117585 278.05634791 89.6328125 281.11328125 C87.58313295 282.39290826 85.53365333 283.67285555 83.484375 284.953125 C77.99951474 288.37256778 72.50537118 291.77680382 67.0078125 295.17578125 C64.44024584 296.76500279 61.87288516 298.35455624 59.30566406 299.94433594 C57.30827094 301.18041901 55.31014246 302.41531414 53.31152344 303.64941406 C49.99945766 305.69587013 46.69086633 307.74784779 43.3828125 309.80078125 C42.34447266 310.44080078 41.30613281 311.08082031 40.23632812 311.74023438 C38.7890332 312.64032227 38.7890332 312.64032227 37.3125 313.55859375 C36.45640137 314.08855957 35.60030273 314.61852539 34.71826172 315.16455078 C32.72488391 316.52737479 31.13675023 317.9036402 29.5078125 319.67578125 C51.03317169 325.19608142 74.62580769 320.78902687 93.7890625 309.79296875 C106.86202835 301.37477104 115.71236702 291.94883781 122.3828125 277.92578125 C122.6813916 277.29986084 122.9799707 276.67394043 123.28759766 276.02905273 C125.00465174 272.26104512 126.01627422 268.78453713 126.5078125 264.67578125 C122.89041681 261.98639043 122.89041681 261.98639043 118.61816406 262.31152344 Z M176.5078125 369.67578125 C174.82974034 372.22969258 174.17985804 374.91771674 173.4453125 377.86328125 C172.96562103 379.50436563 172.47981211 381.14367274 171.98828125 382.78125 C171.7464209 383.60544434 171.50456055 384.42963867 171.25537109 385.27880859 C158.00304098 427.77109373 123.91223914 467.55656957 86.46875 490.80078125 C84.04554718 492.33526324 81.78559093 493.94033102 79.5078125 495.67578125 C109.28552818 496.36499841 134.87022243 491.97420409 157.2421875 471.10351562 C174.81459529 453.83815259 184.8247906 428.89266727 187.5078125 404.67578125 C187.61738281 403.70769531 187.72695313 402.73960937 187.83984375 401.7421875 C190.01296171 383.8362742 190.01296171 383.8362742 186.5078125 366.67578125 C182.8374799 366.67578125 179.62422411 367.75411404 176.5078125 369.67578125 Z M-18.4921875 370.67578125 C-17.28565049 380.85400374 -11.32700888 392.00219232 -3.4921875 398.67578125 C5.67699007 405.47079677 19.95020521 415.63074617 31.85351562 414.44140625 C32.65724609 414.27125 33.46097656 414.10109375 34.2890625 413.92578125 C35.66094727 413.63598389 35.66094727 413.63598389 37.06054688 413.34033203 C38.03314453 413.12103027 39.00574219 412.90172852 40.0078125 412.67578125 C41.01650391 412.45519043 42.02519531 412.23459961 43.06445312 412.00732422 C51.11182345 410.17118841 58.87212474 407.74170633 66.59179688 404.82421875 C71.64559312 402.98500798 75.12205776 402.29803004 80.5078125 403.67578125 C82.89050086 405.26424016 83.39384751 406.36644771 84.3828125 409.05078125 C84.54965282 412.55442794 83.66644102 413.94151846 81.5078125 416.67578125 C57.45029024 433.70110469 16.25877385 434.92445106 -11.8671875 434.73828125 C-13.20051911 434.73324552 -14.53385261 434.72868635 -15.8671875 434.72460938 C-19.07557111 434.7129848 -22.28385301 434.69664794 -25.4921875 434.67578125 C-6.23251914 454.50986077 22.28203975 463.30506648 49.3503418 464.02758789 C71.46700083 464.22061339 99.37978367 460.48968016 115.89453125 444.46484375 C119.40867533 440.88690848 122.47203998 437.08345578 125.4453125 433.05078125 C125.96544922 432.34767822 126.48558594 431.6445752 127.02148438 430.92016602 C147.09633281 403.85861006 147.09633281 403.85861006 156.5078125 372.67578125 C152.14698161 371.9489761 149.79307191 371.77443049 146.1015625 374.36328125 C143.49827541 376.73589733 140.99265808 379.17950233 138.5078125 381.67578125 C117.3909688 402.03845196 117.3909688 402.03845196 107.1328125 402.98828125 C103.5078125 402.67578125 103.5078125 402.67578125 101.0703125 401.11328125 C98.7980571 397.56856282 98.66575287 395.81590779 99.5078125 391.67578125 C101.7625565 388.8134715 104.57686296 386.81275599 107.5078125 384.67578125 C108.3755127 384.0410791 108.3755127 384.0410791 109.26074219 383.39355469 C113.31097409 380.44091267 117.39789347 377.54464327 121.5078125 374.67578125 C120.5178125 374.18078125 120.5178125 374.18078125 119.5078125 373.67578125 C117.57837786 374.47396105 115.68834972 375.3679115 113.8203125 376.30078125 C86.46961784 389.28332464 52.07744501 393.51745175 22.5078125 385.67578125 C21.74033691 385.48242188 20.97286133 385.2890625 20.18212891 385.08984375 C7.79091274 381.91172854 -3.47620112 377.25610423 -14.83837891 371.40673828 C-16.49571194 370.54102844 -16.49571194 370.54102844 -18.4921875 370.67578125 Z " fill="#1EE968" transform="translate(157.4921875,-0.67578125)"/>
<path d="M0 0 C2.07682543 2.95548234 2.42311543 4.69119556 2.625 8.3125 C1.78842094 11.16302546 0.54666139 13.76994088 -0.75 16.4375 C-1.40629718 17.83469517 -2.0600306 19.23309806 -2.7109375 20.6328125 C-3.15252197 21.54957764 -3.15252197 21.54957764 -3.60302734 22.48486328 C-5.75444803 27.57832795 -5.55851227 32.55674669 -5.5625 38 C-5.57474609 38.86044922 -5.58699219 39.72089844 -5.59960938 40.60742188 C-5.6110676 45.67577716 -5.05094065 50.12693572 -3.84008789 55.03686523 C-0.67879015 70.50482128 -3.62008739 87.14295574 -11.55859375 100.65234375 C-22.72384108 117.00402855 -42.38072597 128.1216984 -61.375 133.3125 C-64.9529027 133.16938389 -66.7905871 132.73896347 -69.6875 130.625 C-71.84127081 127.6735363 -72.19888856 125.97218169 -72.375 122.3125 C-71.22991702 119.6261816 -70.06005198 117.26654486 -68.625 114.75 C-60.92382107 100.27198346 -60.17697243 86.78041828 -62.875 70.8125 C-65.62651765 54.42589869 -65.24992063 39.00556855 -55.33984375 24.86328125 C-44.01260424 10.15813732 -31.08071794 0.83303841 -12.66015625 -2.32421875 C-7.85903806 -2.85513907 -4.02444807 -2.85947626 0 0 Z M-35.3828125 28.2109375 C-42.4493939 35.95052665 -46.46937089 44.57408729 -46.33984375 55.1953125 C-45.9842051 60.14838902 -45.26577341 64.94326172 -44.3125 69.8125 C-43.32421169 75.39559144 -43.18801957 80.84713047 -43.1875 86.5 C-43.18641235 87.74716797 -43.18641235 87.74716797 -43.18530273 89.01953125 C-43.23382038 94.51456335 -43.69004857 99.86028661 -44.375 105.3125 C-36.68084304 103.15096828 -30.86584686 98.39263429 -26.69140625 91.5546875 C-25.41812406 88.84187857 -24.34775593 86.14581094 -23.375 83.3125 C-22.941875 82.075 -22.50875 80.8375 -22.0625 79.5625 C-19.97238638 69.67465481 -21.27744436 59.8295499 -23.29638672 50.09277344 C-25.36438634 39.85053533 -24.39490548 30.48416687 -22.375 20.3125 C-27.19122672 20.3125 -32.03950761 25.04975817 -35.3828125 28.2109375 Z " fill="#1EE968" transform="translate(452.375,336.6875)"/>
<path d="M0 0 C4.09534689 1.46262389 5.26598111 3.01245462 7.85546875 6.33984375 C13.83097185 13.28051125 22.49638056 16.66232005 31.47265625 17.41552734 C34.39033647 17.59082995 37.30919867 17.71958689 40.22924805 17.84814453 C55.67618814 18.61661472 68.4946909 24.8260182 78.92578125 36.15625 C87.88745873 46.51567926 88.81873966 58.02899771 88.6875 71.1875 C88.6865332 73.02344727 88.6865332 73.02344727 88.68554688 74.89648438 C88.5998807 92.59130895 88.5998807 92.59130895 86.046875 96.44140625 C83.40361254 98.45833043 81.18149425 100.02851437 78 101.0625 C73.83183485 99.70784632 71.3769291 96.44732955 68.5 93.25 C58.33631462 82.30449267 46.70888027 79.91393848 32.3203125 78.609375 C27.70875216 78.08851006 25.13473126 77.734776 21.375 74.86328125 C19.5 72.25 19.5 72.25 18.75 68.8125 C19.65671211 64.50561749 20.92987918 62.93871077 24.3984375 60.34765625 C28.17183293 58.37679358 31.36452442 58.7399785 35.5 59.25 C37.06427734 59.39501953 37.06427734 59.39501953 38.66015625 59.54296875 C49.33341055 60.75829985 60.39109313 63.34384678 69.5 69.25 C69.82567129 60.13120391 68.52728671 52.43341587 62.5 45.25 C54.80695506 38.36017321 44.35577431 37.20837816 34.4375 36.75 C24.76215986 36.30284917 11.76555189 34.51555189 4.5 27.25 C4.07731121 32.63928204 4.80971431 36.65831898 6.5 41.8125 C9.35808011 50.67357274 9.35808011 50.67357274 8.5 55.25 C5.97121748 58.85159935 4.40822766 60.0313526 0.125 61.0625 C-4.40429416 60.04731338 -5.95750653 58.30732306 -8.921875 54.87890625 C-13.60441997 47.07852812 -13.9945607 39.37527984 -13.9375 30.4375 C-13.95748047 29.33857422 -13.97746094 28.23964844 -13.99804688 27.10742188 C-13.99322232 18.92015907 -13.03902997 10.2293778 -8.15869141 3.36279297 C-5.54727551 0.83284839 -3.59260452 0.25661461 0 0 Z " fill="#1EE968" transform="translate(13.5,298.75)"/>
<path d="M0 0 C2.05425855 1.54590777 4.09603133 3.10854618 6.125 4.6875 C10.57790397 8.13528654 14.65567118 10.29895105 19.93359375 12.1796875 C23.6954163 13.67303861 25.42564445 15.6718028 27 19.3125 C27 26.21406566 20.91098491 31.80740087 16.48828125 36.5703125 C5.39575552 47.40163276 -6.9117859 51.33541128 -22.06347656 51.30810547 C-36.10602666 51.03990236 -45.04363396 43.76992681 -55.79614258 35.64233398 C-59.15677592 33.16159543 -62.19901543 31.30081349 -66.1875 29.9375 C-69.93249488 28.5146296 -72.63869023 27.38796619 -75 24 C-76 21.6875 -76 21.6875 -76 19 C-69.97693759 5.6990705 -57.97276675 -2.8234957 -44.7265625 -8.08984375 C-28.48779908 -13.51051979 -13.74917676 -9.090509 0 0 Z M-52 16 C-36.42352315 29.34999088 -36.42352315 29.34999088 -17.0625 33.390625 C-9.57671957 32.43580607 -2.98582268 29.52981175 3 25 C1.33451786 23.66518736 -0.33244348 22.33222026 -2 21 C-2.91136719 20.2678125 -3.82273437 19.535625 -4.76171875 18.78125 C-13.09104748 12.28682013 -20.60437034 7.16772118 -31.4921875 7.6796875 C-39.31369867 8.67869672 -45.59593385 11.47422141 -52 16 Z " fill="#1EE968" transform="translate(341,46)"/>
<path d="M0 0 C2.0491949 1.71992918 3.93956384 3.51640972 5.81640625 5.421875 C6.56470703 6.13730469 6.56470703 6.13730469 7.328125 6.8671875 C11.19904503 10.91839696 13.86851603 15.70925168 16.62890625 20.546875 C17.22529907 21.58702759 17.22529907 21.58702759 17.83374023 22.64819336 C19.7906064 26.17496039 21.50682193 29.32356832 21.81640625 33.421875 C20.19351979 37.00930823 18.38998405 39.68337769 14.81640625 41.421875 C11.3157236 41.40795578 7.97986968 41.00360672 4.81640625 39.421875 C-5.15433791 38.46050848 -12.27373809 40.12518231 -21.18359375 44.421875 C-29.84390735 48.29427237 -38.28245344 50.23853032 -47.69140625 47.76171875 C-57.85029555 43.67338525 -65.95575052 36.1593573 -70.66015625 26.33984375 C-75.86061683 13.86164364 -75.86061683 13.86164364 -74.18359375 7.421875 C-71.94689932 4.35440836 -70.32798908 2.87361 -66.80859375 1.484375 C-63.3437792 1.40187942 -60.5084478 2.46386621 -57.18359375 3.421875 C-50.24314696 4.1045419 -45.45783871 2.28704878 -39.18359375 -0.578125 C-37.58003783 -1.30863381 -35.97589886 -2.03786454 -34.37109375 -2.765625 C-33.68402344 -3.08917969 -32.99695312 -3.41273438 -32.2890625 -3.74609375 C-21.71463611 -7.92485594 -9.17407985 -6.63028311 0 0 Z M-32.0859375 16.046875 C-38.53536026 18.90967047 -45.12090636 21.65834123 -52.18359375 22.421875 C-48.21475148 27.6380677 -45.78463515 29.90744051 -39.12109375 30.859375 C-34.35491815 30.32979993 -30.67874877 28.72267665 -26.31640625 26.79296875 C-19.76956869 23.92770692 -12.97865486 21.6256786 -6.18359375 19.421875 C-7.21052825 16.11286384 -8.22281482 15.3999112 -11.30859375 13.671875 C-19.23360631 10.74271225 -24.67012648 12.74679222 -32.0859375 16.046875 Z " fill="#1EE968" transform="translate(74.18359375,420.578125)"/>
</svg>
